<?xml version="1.0" encoding="UTF-8" standalone="no"?>
<!-- Created with Inkscape (http://www.inkscape.org/) -->

<svg
   version="1.1"
   id="svg1"
   width="1228"
   height="1228"
   viewBox="0 0 1228 1228"
   sodipodi:docname="给我一个纯白背景的版本_2K_202604021036_nobgProcessed.png"
   inkscape:export-filename="Imaget-logo.png"
   inkscape:export-xdpi="96"
   inkscape:export-ydpi="96"
   xmlns:inkscape="http://www.inkscape.org/namespaces/inkscape"
   xmlns:sodipodi="http://sodipodi.sourceforge.net/DTD/sodipodi-0.dtd"
   xmlns="http://www.w3.org/2000/svg"
   xmlns:svg="http://www.w3.org/2000/svg">
  <defs
     id="defs1" />
  <sodipodi:namedview
     id="namedview1"
     pagecolor="#ffffff"
     bordercolor="#000000"
     borderopacity="0.25"
     inkscape:showpageshadow="2"
     inkscape:pageopacity="0.0"
     inkscape:pagecheckerboard="0"
     inkscape:deskcolor="#d1d1d1">
    <inkscape:page
       x="0"
       y="0"
       width="1228"
       height="1228"
       id="page2"
       margin="0"
       bleed="0" />
  </sodipodi:namedview>
  <g
     inkscape:groupmode="layer"
     inkscape:label="Image"
     id="g1">
    <path
       style="display:inline;fill:#0ceaeb"
       d="m 239.8891,1226.5558 c -0.24433,-0.2444 -4.37862,-0.9332 -9.18731,-1.5307 C 210.48311,1222.5126 179.29353,1212.9914 157.5,1202.6788 104.66103,1177.6757 63.833829,1140.2115 34.706343,1090 21.432387,1067.1176 9.4048263,1033.0376 4.5316203,1004.5 -0.19238233,976.83615 0.01650175,994.69839 0.00798898,617.67209 0.00264123,380.82305 0.34426444,259.81997 1.0413023,251.67209 5.1227134,203.96327 19.976048,160.08512 44.767762,122.5 63.754064,93.716092 84.527772,71.858706 111.42618,52.364293 145.47544,27.687355 178.71569,13.104317 220.45437,4.531858 242.75678,-0.04870233 234.98046,0.0405009 613.5,0.02317507 846.96945,0.01248856 974.47928,0.35810044 982,1.0219842 c 39.6557,3.5005621 80.9991,17.2081768 115.5,38.2946158 36.2697,22.167503 63.3721,48.381745 86.169,83.34516 21.4884,32.95659 34.1854,66.86649 41.5016,110.83824 l 2.3294,14 V 614 c 0,298.26478 -0.246,368.26872 -1.3211,376 -8.9414,64.2953 -33.8601,114.8444 -78.6343,159.5142 -37.8493,37.7612 -91.2927,65.3964 -144.0446,74.4845 -3.85,0.6633 -9.15965,1.61 -11.79922,2.1037 -4.74753,0.8879 -750.9271,1.3379 -751.81168,0.4534 z"
       id="path5" />
    <path
       style="display:inline;fill:#274b57"
       d="m 239.8891,1226.5558 c -0.24433,-0.2444 -4.37862,-0.9332 -9.18731,-1.5307 C 210.48311,1222.5126 179.29353,1212.9914 157.5,1202.6788 104.66103,1177.6757 63.833829,1140.2115 34.706343,1090 21.432387,1067.1176 9.4048263,1033.0376 4.5316203,1004.5 -0.19238233,976.83615 0.01650175,994.69839 0.00798898,617.67209 0.00264123,380.82305 0.34426444,259.81997 1.0413023,251.67209 5.1227134,203.96327 19.976048,160.08512 44.767762,122.5 63.754064,93.716092 84.527772,71.858706 111.42618,52.364293 145.47544,27.687355 178.71569,13.104317 220.45437,4.531858 242.75678,-0.04870233 234.98046,0.0405009 613.5,0.02317507 846.96945,0.01248856 974.47928,0.35810044 982,1.0219842 c 39.6557,3.5005621 80.9991,17.2081768 115.5,38.2946158 36.2697,22.167503 63.3721,48.381745 86.169,83.34516 21.4884,32.95659 34.1854,66.86649 41.5016,110.83824 l 2.3294,14 V 614 c 0,298.26478 -0.246,368.26872 -1.3211,376 -8.9414,64.2953 -33.8601,114.8444 -78.6343,159.5142 -37.8493,37.7612 -91.2927,65.3964 -144.0446,74.4845 -3.85,0.6633 -9.15965,1.61 -11.79922,2.1037 -4.74753,0.8879 -750.9271,1.3379 -751.81168,0.4534 z M 710,1097.5234 c 7.09384,-1.7096 25.26401,-10.2574 28.7929,-13.5451 2.16461,-2.0166 2.2071,-2.5468 2.2071,-27.542 v -25.4858 l -2.75,-1.0573 c -4.1075,-1.5792 -19.08291,-0.7627 -20.29859,1.1068 -0.59938,0.9217 -0.73676,7.8709 -0.35637,18.0259 0.8214,21.9286 0.42375,22.9904 -9.7443,26.0186 -24.92135,7.4219 -49.33403,-1.1089 -59.12833,-20.6617 -4.91334,-9.8088 -5.96532,-14.7625 -5.56707,-26.2154 0.34082,-9.8013 0.66307,-11.2763 3.96914,-18.1674 6.10933,-12.73408 15.20838,-21.02012 26.80702,-24.41174 3.39514,-0.9928 9.26059,-1.58826 15.64467,-1.58826 15.04501,0 20.94292,2.13653 35.58883,12.8921 1.73096,1.27118 2.50105,0.78668 8.86531,-5.57759 3.83333,-3.83332 6.96969,-7.69597 6.96969,-8.58365 0,-4.06166 -20.22131,-16.23843 -32.27935,-19.43782 -7.68265,-2.03846 -26.75884,-2.25123 -35.14578,-0.39201 -8.22692,1.82374 -19.99916,6.95441 -27.24153,11.8726 -12.38391,8.40975 -22.86547,23.54645 -26.78884,38.68647 -1.95819,7.5565 -2.00811,25.9599 -0.0924,34.0399 5.91348,24.9411 26.90719,44.7697 54.04785,51.0482 7.52406,1.7406 27.33282,1.1844 36.5,-1.0248 z m -482.25,-0.1537 2.25,-0.603 v -66.2763 c 0,-59.51294 -0.16142,-66.33837 -1.58179,-66.88341 -2.5589,-0.98194 -21.24623,-0.69427 -21.88352,0.33687 -0.32083,0.51913 -0.56795,30.53282 -0.54914,66.69714 0.0266,51.2028 0.30862,65.9275 1.27432,66.5408 1.45304,0.9228 17.20869,1.0673 20.49013,0.1879 z m 73.28558,-0.9126 c 1.0177,-1.2262 1.13817,-9.0966 0.58704,-38.3525 -0.68646,-36.4398 -0.34288,-45.5114 1.69796,-44.8311 1.07696,0.359 15.96161,24.6027 31.3099,50.9966 4.72392,8.1236 9.53971,15.4361 10.70174,16.25 1.16204,0.814 4.04194,1.4799 6.39979,1.4799 5.24811,0 4.47336,1.0448 22.98664,-31 17.26869,-29.8906 22.22556,-38 23.22739,-38 1.70728,0 2.05396,7.5262 2.05396,44.5898 0,44.5584 -1.28316,40.4102 12.5,40.4102 14.01087,0 12.5,7.9738 12.5,-65.9701 0,-39.09852 -0.37852,-64.89528 -0.97525,-66.4648 -0.95075,-2.50067 -1.20823,-2.56472 -10.25,-2.54979 -5.10111,0.008 -9.77826,0.34592 -10.39366,0.75 -2.0401,1.33956 -26.4636,42.54789 -42.81234,72.23469 -5.78394,10.5027 -8.19619,14 -9.65662,14 -0.79337,0 -1.78021,-1.6057 -22.43182,-36.5 -21.69005,-36.64888 -28.65963,-47.98934 -30.2679,-49.25 -0.99998,-0.78385 -4.86656,-1.25 -10.36836,-1.25 -7.83093,0 -8.89196,0.221 -9.87442,2.05676 -0.77792,1.45354 -1.0082,20.96767 -0.78519,66.53694 0.27403,55.9949 0.51295,64.6049 1.81556,65.4279 0.825,0.5213 5.8324,0.9547 11.12756,0.9631 7.47047,0.012 9.91444,-0.3304 10.90802,-1.5276 z m 176.20222,0.6426 c 1.71943,-0.6537 3.15569,-2.9133 5.24392,-8.25 1.58175,-4.0423 4.3292,-10.5466 6.10544,-14.454 3.04283,-6.6936 3.45163,-7.141 7.07119,-7.739 2.11291,-0.3491 16.70941,-0.6396 32.43666,-0.6457 25.98794,-0.01 28.73551,0.1486 30.136,1.739 1.90376,2.162 5.97042,10.2107 10.47282,20.7278 1.87842,4.3878 3.95101,8.3184 4.60574,8.7347 1.78536,1.1351 20.53465,0.9412 22.73267,-0.2351 1.88001,-1.0062 1.8801,-1.1004 0.006,-5.8557 -1.04778,-2.6583 -5.37085,-12.2106 -9.60683,-21.2274 -6.94041,-14.7736 -12.01926,-25.9158 -26.16149,-57.3943 -14.32033,-31.87492 -21.61283,-47.14395 -23.04422,-48.25 -2.22144,-1.71653 -22.28541,-1.71653 -24.37435,0 -0.83665,0.6875 -2.7792,4.175 -4.31678,7.75 -1.53758,3.575 -4.9498,11.225 -7.58272,17 -2.63293,5.775 -8.933,19.95 -14.00016,31.5 -5.06716,11.55 -14.55641,33.0739 -21.08722,47.8309 C 459.34339,1083.088 454,1095.553 454,1096.031 c 0,0.8066 4.59863,1.3123 16.1849,1.7799 2.5767,0.104 5.7505,-0.216 7.0529,-0.7112 z m 24.20657,-51.3841 c -0.65515,-1.7073 21.76177,-53.95098 23.3811,-54.49076 2.09132,-0.6971 24.69482,49.83156 23.97243,53.58886 -0.29124,1.5148 -2.68997,1.7136 -23.58535,1.9548 -18.54709,0.2141 -23.36389,7e-4 -23.76818,-1.0529 z m 383.73014,51.191 c 1.53032,-0.819 1.82549,-2.2516 1.82549,-8.86 0,-4.3357 -0.27314,-8.5948 -0.60699,-9.4648 -0.53786,-1.4016 -4.68555,-1.5818 -36.41821,-1.5818 -19.69617,0 -36.52303,-0.2731 -37.39301,-0.607 -1.35821,-0.5212 -1.58179,-3.0571 -1.58179,-17.941 0,-10.8575 0.38634,-17.5727 1.03402,-17.973 0.56871,-0.3515 14.76049,-0.8982 31.53728,-1.2148 16.77679,-0.3167 30.7376,-0.955 31.02403,-1.4184 0.28642,-0.4635 0.77933,-3.9267 1.09534,-7.6961 0.95931,-11.4426 3.38146,-10.6497 -32.5322,-10.6497 -17.03942,0 -31.33907,-0.3558 -31.77699,-0.7907 -0.8512,-0.8453 -0.59709,-32.82606 0.26772,-33.69326 0.28304,-0.28382 16.56526,-0.74104 36.18271,-1.01604 l 35.66809,-0.5 0.29038,-8.84889 c 0.18587,-5.66435 -0.12811,-9.35312 -0.87245,-10.25 C 881.95143,963.23655 873.93898,963 835.45934,963 c -25.46267,0 -47.00757,0.27314 -47.87755,0.60699 -1.42038,0.54505 -1.58179,7.3734 -1.58179,66.91671 0,52.1294 0.26731,66.4105 1.25,66.7815 2.53588,0.9573 96.1026,0.5765 97.92451,-0.3986 z m 91.89123,0.058 C 978.94205,1095.9606 979,1094.2839 979,1041 v -54.92963 l 2.20463,-1.17988 c 1.57478,-0.8428 7.18812,-1.01886 19.64807,-0.61625 9.5939,0.31001 18.5019,0.16126 19.7954,-0.33055 2.224,-0.84555 2.3519,-1.37419 2.3519,-9.71894 0,-5.53036 -0.448,-9.27272 -1.2,-10.02475 -0.9035,-0.90355 -14.4707,-1.2 -54.91821,-1.2 -29.54502,0 -54.43002,0.27314 -55.3,0.60699 -1.28606,0.4935 -1.58179,2.35209 -1.58179,9.94098 0,6.37143 0.39539,9.57836 1.24573,10.1039 0.68515,0.42344 9.6491,0.63988 19.9199,0.48096 12.33954,-0.19092 19.37979,0.0887 20.75428,0.8243 2.06835,1.10695 2.08009,1.42587 2.08009,56.49477 0,43.3695 0.27112,55.4908 1.25,55.8858 2.37496,0.9583 19.88768,0.659 21.81574,-0.3729 z M 619.19494,898.28413 c 2.36778,-2.59373 6.58269,-7.20623 9.36645,-10.25 2.78377,-3.04377 14.25877,-15.87446 25.5,-28.51265 11.24124,-12.63818 24.94974,-27.93818 30.46333,-34 5.5136,-6.06181 13.6136,-15.28811 18,-20.50287 4.38641,-5.21477 10.73346,-12.41477 14.10457,-16 3.37111,-3.58524 9.22111,-10.17635 13,-14.64692 3.77889,-4.47058 14.40821,-16.56576 23.62071,-26.87818 C 762.4625,737.18108 770,728.12632 770,727.37182 770,726.22669 761.26219,726 717.12244,726 c -43.10207,0 -53.08413,-0.24892 -53.995,-1.34644 -0.80238,-0.96681 -1.18934,-28.66885 -1.37244,-98.25 L 661.5,529.5 H 614 566.5 l -0.255,96.90356 c -0.1831,69.58115 -0.57006,97.28319 -1.37244,98.25 C 563.96197,725.75075 554.07008,726 511.43657,726 c -32.83208,0 -52.54251,0.3624 -52.91988,0.97299 -0.68712,1.11179 9.87932,13.87236 23.62192,28.52701 5.1577,5.5 12.61458,13.88446 16.57084,18.63213 3.95625,4.74766 10.71461,12.39766 15.01856,17 4.30396,4.60233 13.08385,14.44287 19.51088,21.86787 6.42702,7.425 16.31501,18.70134 21.9733,25.05854 5.6583,6.35719 17.66618,19.85719 26.68418,30 C 608.71187,898.21869 613.10764,903 614.02034,903 c 0.47825,0 2.80682,-2.12214 5.1746,-4.71587 z M 525.5769,661.54963 c 0.33825,-1.3477 0.23433,-9.3352 -0.23095,-17.75 L 524.5,628.5 435.09595,628.2446 c -64.03551,-0.18293 -89.78596,-0.57237 -90.75,-1.37245 C 343.25163,625.96394 343,616.62221 343,576.90323 v -48.85188 l 6.19896,-7.27567 c 3.40943,-4.00163 9.83922,-11.32568 14.28843,-16.27568 4.44921,-4.95 13.45664,-15.3 20.01652,-23 6.55987,-7.7 15.54258,-18.06227 19.96157,-23.02726 4.41898,-4.96499 16.58452,-18.88738 27.03452,-30.93864 10.45,-12.05126 22.825,-26.23663 27.5,-31.52304 4.675,-5.28641 12.70161,-14.45566 17.83691,-20.3761 5.13531,-5.92044 9.99967,-11.01876 10.8097,-11.32959 1.81022,-0.69465 3.39578,0.79093 23.6884,22.19463 39.75019,41.92663 73.96715,77.8381 83.33973,87.46693 l 10.18837,10.46693 2.19902,-1.96693 c 1.20945,-1.08181 7.63062,-8.71693 14.26926,-16.96693 33.76971,-41.96644 82.82221,-102.63475 99.36929,-122.9003 7.58963,-9.29516 14.5491,-17.36907 15.4655,-17.94201 1.21723,-0.76103 2.13067,-0.65622 3.39008,0.389 0.94814,0.78689 10.40063,12.23579 21.00552,25.44201 18.01538,22.43445 26.6166,33.08744 59.86897,74.15035 7.18809,8.87647 22.74425,27.95828 34.56925,42.40401 11.825,14.44573 22.45321,27.43316 23.61825,28.86095 1.16504,1.42779 3.30254,4.34629 4.75,6.48554 L 885,506.27909 v 59.27867 c 0,32.60327 -0.27314,59.99047 -0.60699,60.86045 -0.54715,1.42586 -9.39471,1.5833 -89.75,1.5971 -49.02865,0.008 -89.71675,0.37943 -90.41798,0.82445 -0.96958,0.61533 -1.20911,4.86343 -1,17.73469 L 703.5,663.5 l 108.1812,0.25445 c 102.38711,0.24083 108.21051,0.16049 108.72853,-1.5 0.30104,-0.96495 0.41642,-120.89752 0.25641,-266.51684 -0.2167,-197.22011 -0.58308,-265.05455 -1.43616,-265.90763 -1.39502,-1.39502 -608.97705,-1.48291 -610.37166,-0.0883 -0.9513,0.9513 -1.27272,531.7788 -0.32292,533.3156 C 308.8944,663.63815 350.54231,664 417.03996,664 H 524.9619 Z M 343.52199,465.75 c -0.3303,-2.3375 -0.47038,-70.82972 -0.31127,-152.20493 L 343.5,165.59014 346,164.89475 c 3.16412,-0.88012 518.52046,-0.92436 530,-0.0455 l 8.5,0.65075 0.28943,135.5 c 0.15919,74.525 0.0191,137.4125 -0.31127,139.75 -0.33039,2.3375 -1.00347,4.25 -1.49573,4.25 -0.49227,0 -5.38641,-5.5125 -10.87587,-12.25 C 816.01811,363.90977 782.66964,322.77952 759.40517,293.75 747.61446,279.0375 737.6131,267 737.17993,267 c -1.85578,0 -1.67661,-0.21599 -62.62847,75.5 -17.26739,21.45 -40.10403,49.8 -50.7481,63 -11.77392,14.60117 -20.12815,24.11254 -21.33258,24.28738 -1.45662,0.21144 -8.21073,-6.26237 -25.56079,-24.5 -31.17495,-32.76975 -54.11102,-57.2455 -72.30514,-77.15887 -8.19233,-8.96647 -15.52159,-16.54306 -16.28724,-16.83687 -0.76566,-0.29381 -2.341,0.30787 -3.50077,1.33708 -2.76408,2.45291 -45.03316,50.11032 -55.94055,63.07167 -6.71712,7.98202 -27.97816,32.3291 -41.78511,47.85021 C 352.20902,462.76347 345.63777,470 344.91206,470 c -0.43423,0 -1.05976,-1.9125 -1.39007,-4.25 z M 615.5,309.81026 c 12.46812,-3.10294 26.09097,-14.43774 31.66308,-26.34506 5.78243,-12.35677 5.50534,-28.62072 -0.70227,-41.2195 -7.59117,-15.40679 -20.63447,-25.11198 -36.68205,-27.29418 -24.18486,-3.28873 -47.70826,12.67786 -53.23748,36.13511 -4.1298,17.52036 0.51886,33.06597 13.9016,46.48849 12.19824,12.23448 27.91299,16.50178 45.05712,12.23514 z"
       id="path4" />
  </g>
</svg>
